{
  "accessors": [
    {
      "bufferView": 2,
      "componentType": 5126,
      "count": 65532,
      "max": [
        6.183707237243652,
        20.727893829345703,
        -0.2742449939250946
      ],
      "min": [
        2.3360049724578857,
        17.559547424316406,
        -5.425271034240723
      ],
      "type": "VEC3"
    },
    {
      "bufferView": 2,
      "byteOffset": 786384,
      "componentType": 5126,
      "count": 65532,
      "max": [
        0.9999909996986389,
        0.9977917671203613,
        0.9991649985313416
      ],
      "min": [
        -0.9999749064445496,
        -1.0,
        -0.9999943375587463
      ],
      "type": "VEC3"
    },
    {
      "bufferView": 1,
      "componentType": 5126,
      "count": 65532,
      "max": [
        0.9993669986724854,
        0.9994080066680908
      ],
      "min": [
        0.001512999995611608,
        0.00041599999531172216
      ],
      "type": "VEC2"
    },
    {
      "bufferView": 0,
      "componentType": 5125,
      "count": 353361,
      "type": "SCALAR"
    },
    {
      "bufferView": 2,
      "byteOffset": 1572768,
      "componentType": 5126,
      "count": 65532,
      "max": [
        3.52726411819458,
        20.188390731811523,
        0.5483980178833008
      ],
      "min": [
        -1.5361180305480957,
        17.151166915893555,
        -4.011171817779541
      ],
      "type": "VEC3"
    },
    {
      "bufferView": 2,
      "byteOffset": 2359152,
      "componentType": 5126,
      "count": 65532,
      "max": [
        0.9999433755874634,
        0.9999123811721802,
        0.9996157884597778
      ],
      "min": [
        -0.9999983310699463,
        -0.9999961256980896,
        -0.9999993443489075
      ],
      "type": "VEC3"
    },
    {
      "bufferView": 1,
      "byteOffset": 524256,
      "componentType": 5126,
      "count": 65532,
      "max": [
        1.0,
        0.999550998210907
      ],
      "min": [
        6.0999998822808266e-05,
        0.0
      ],
      "type": "VEC2"
    },
    {
      "bufferView": 0,
      "byteOffset": 1413444,
      "componentType": 5125,
      "count": 342639,
      "type": "SCALAR"
    },
    {
      "bufferView": 2,
      "byteOffset": 3145536,
      "componentType": 5126,
      "count": 65532,
      "max": [
        5.673243045806885,
        20.548189163208008,
        1.2224400043487549
      ],
      "min": [
        -1.5864800214767456,
        16.942174911499023,
        -6.931718826293945
      ],
      "type": "VEC3"
    },
    {
      "bufferView": 2,
      "byteOffset": 3931920,
      "componentType": 5126,
      "count": 65532,
      "max": [
        0.9999933838844299,
        0.9956076145172119,
        0.998860239982605
      ],
      "min": [
        -0.9999953508377075,
        -0.9999998807907104,
        -0.9999843835830688
      ],
      "type": "VEC3"
    },
    {
      "bufferView": 1,
      "byteOffset": 1048512,
      "componentType": 5126,
      "count": 65532,
      "max": [
        0.9993810057640076,
        0.9993540048599243
      ],
      "min": [
        0.0031419999431818724,
        0.0
      ],
      "type": "VEC2"
    },
    {
      "bufferView": 0,
      "byteOffset": 2784000,
      "componentType": 5125,
      "count": 350826,
      "type": "SCALAR"
    },
    {
      "bufferView": 2,
      "byteOffset": 4718304,
      "componentType": 5126,
      "count": 65532,
      "max": [
        5.675323963165283,
        20.38395881652832,
        -2.1460609436035156
      ],
      "min": [
        -0.9558129906654358,
        18.510709762573242,
        -6.806682109832764
      ],
      "type": "VEC3"
    },
    {
      "bufferView": 2,
      "byteOffset": 5504688,
      "componentType": 5126,
      "count": 65532,
      "max": [
        0.9999972581863403,
        0.9999032616615295,
        0.999988853931427
      ],
      "min": [
        -0.9999930262565613,
        -0.9999996423721313,
        -1.0
      ],
      "type": "VEC3"
    },
    {
      "bufferView": 1,
      "byteOffset": 1572768,
      "componentType": 5126,
      "count": 65532,
      "max": [
        1.0,
        0.9993360042572021
      ],
      "min": [
        0.0,
        0.0
      ],
      "type": "VEC2"
    },
    {
      "bufferView": 0,
      "byteOffset": 4187304,
      "componentType": 5125,
      "count": 340611,
      "type": "SCALAR"
    },
    {
      "bufferView": 2,
      "byteOffset": 6291072,
      "componentType": 5126,
      "count": 65532,
      "max": [
        1.2536170482635498,
        20.064006805419922,
        -1.021286964416504
      ],
      "min": [
        -3.509890079498291,
        18.740188598632813,
        -5.484958171844482
      ],
      "type": "VEC3"
    },
    {
      "bufferView": 2,
      "byteOffset": 7077456,
      "componentType": 5126,
      "count": 65532,
      "max": [
        0.9999899864196777,
        0.9999587535858154,
        0.999984622001648
      ],
      "min": [
        -0.9998365044593811,
        -0.9999993443489075,
        -0.9999926686286926
      ],
      "type": "VEC3"
    },
    {
      "bufferView": 1,
      "byteOffset": 2097024,
      "componentType": 5126,
      "count": 65532,
      "max": [
        1.0,
        0.9995009899139404
      ],
      "min": [
        0.00040099999750964344,
        3.199999991920777e-05
      ],
      "type": "VEC2"
    },
    {
      "bufferView": 0,
      "byteOffset": 5549748,
      "componentType": 5125,
      "count": 339198,
      "type": "SCALAR"
    },
    {
      "bufferView": 2,
      "byteOffset": 7863840,
      "componentType": 5126,
      "count": 65532,
      "max": [
        -0.12040799856185913,
        20.285554885864258,
        -0.555387020111084
      ],
      "min": [
        -6.070946216583252,
        18.54591941833496,
        -6.895884037017822
      ],
      "type": "VEC3"
    },
    {
      "bufferView": 2,
      "byteOffset": 8650224,
      "componentType": 5126,
      "count": 65532,
      "max": [
        0.9999823570251465,
        0.9999327659606934,
        0.999413251876831
      ],
      "min": [
        -0.9999953508377075,
        -0.9999998807907104,
        -0.999997615814209
      ],
      "type": "VEC3"
    },
    {
      "bufferView": 1,
      "byteOffset": 2621280,
      "componentType": 5126,
      "count": 65532,
      "max": [
        1.0,
        0.9994590282440186
      ],
      "min": [
        0.0005660000024363399,
        0.0001740000006975606
      ],
      "type": "VEC2"
    },
    {
      "bufferView": 0,
      "byteOffset": 6906540,
      "componentType": 5125,
      "count": 351333,
      "type": "SCALAR"
    },
    {
      "bufferView": 2,
      "byteOffset": 9436608,
      "componentType": 5126,
      "count": 65532,
      "max": [
        -0.8249149918556213,
        20.588085174560547,
        0.7850769758224487
      ],
      "min": [
        -7.632246017456055,
        17.090423583984375,
        -7.110176086425781
      ],
      "type": "VEC3"
    },
    {
      "bufferView": 2,
      "byteOffset": 10222992,
      "componentType": 5126,
      "count": 65532,
      "max": [
        0.9999979734420776,
        0.9996692538261414,
        0.9998491406440735
      ],
      "min": [
        -0.9998989105224609,
        -0.9999993443489075,
        -0.9999971389770508
      ],
      "type": "VEC3"
    },
    {
      "bufferView": 1,
      "byteOffset": 3145536,
      "componentType": 5126,
      "count": 65532,
      "max": [
        0.9802489876747131,
        0.996953010559082
      ],
      "min": [
        0.021159999072551727,
        0.005929000210016966
      ],
      "type": "VEC2"
    },
    {
      "bufferView": 0,
      "byteOffset": 8311872,
      "componentType": 5125,
      "count": 354810,
      "type": "SCALAR"
    },
    {
      "bufferView": 2,
      "byteOffset": 11009376,
      "componentType": 5126,
      "count": 65532,
      "max": [
        -0.5915079712867737,
        20.0050106048584,
        1.4059170484542847
      ],
      "min": [
        -4.733256816864014,
        16.990697860717773,
        -2.225071907043457
      ],
      "type": "VEC3"
    },
    {
      "bufferView": 2,
      "byteOffset": 11795760,
      "componentType": 5126,
      "count": 65532,
      "max": [
        0.9999966621398926,
        0.9999819993972778,
        0.9999740123748779
      ],
      "min": [
        -0.9999567866325378,
        -0.9999980926513672,
        -0.9999942183494568
      ],
      "type": "VEC3"
    },
    {
      "bufferView": 1,
      "byteOffset": 3669792,
      "componentType": 5126,
      "count": 65532,
      "max": [
        1.0,
        0.9994469881057739
      ],
      "min": [
        0.0005130000063218176,
        2.4000000848900527e-05
      ],
      "type": "VEC2"
    },
    {
      "bufferView": 0,
      "byteOffset": 9731112,
      "componentType": 5125,
      "count": 337077,
      "type": "SCALAR"
    },
    {
      "bufferView": 2,
      "byteOffset": 12582144,
      "componentType": 5126,
      "count": 65532,
      "max": [
        8.072694778442383,
        21.17412567138672,
        1.4019010066986084
      ],
      "min": [
        -6.493722915649414,
        17.873966217041016,
        -4.450067043304443
      ],
      "type": "VEC3"
    },
    {
      "bufferView": 2,
      "byteOffset": 13368528,
      "componentType": 5126,
      "count": 65532,
      "max": [
        0.9999831318855286,
        0.9999611377716064,
        0.9999857544898987
      ],
      "min": [
        -0.9999998807907104,
        -0.9999995827674866,
        -0.9999972581863403
      ],
      "type": "VEC3"
    },
    {
      "bufferView": 1,
      "byteOffset": 4194048,
      "componentType": 5126,
      "count": 65532,
      "max": [
        0.9999610185623169,
        0.9997199773788452
      ],
      "min": [
        0.00016199999663513154,
        0.0
      ],
      "type": "VEC2"
    },
    {
      "bufferView": 0,
      "byteOffset": 11079420,
      "componentType": 5125,
      "count": 343050,
      "type": "SCALAR"
    },
    {
      "bufferView": 2,
      "byteOffset": 14154912,
      "componentType": 5126,
      "count": 65532,
      "max": [
        6.180734157562256,
        20.715679168701172,
        0.8384720087051392
      ],
      "min": [
        -4.582509994506836,
        16.83064079284668,
        -6.739583969116211
      ],
      "type": "VEC3"
    },
    {
      "bufferView": 2,
      "byteOffset": 14941296,
      "componentType": 5126,
      "count": 65532,
      "max": [
        0.9999849796295166,
        0.9992973804473877,
        0.9999363422393799
      ],
      "min": [
        -0.9997723698616028,
        -0.9999989867210388,
        -0.9999863505363464
      ],
      "type": "VEC3"
    },
    {
      "bufferView": 1,
      "byteOffset": 4718304,
      "componentType": 5126,
      "count": 65532,
      "max": [
        1.0,
        0.9995750188827515
      ],
      "min": [
        0.0,
        0.0
      ],
      "type": "VEC2"
    },
    {
      "bufferView": 0,
      "byteOffset": 12451620,
      "componentType": 5125,
      "count": 284145,
      "type": "SCALAR"
    },
    {
      "bufferView": 2,
      "byteOffset": 15727680,
      "componentType": 5126,
      "count": 65532,
      "max": [
        -0.613897979259491,
        20.362764358520508,
        1.2897390127182007
      ],
      "min": [
        -7.467294216156006,
        16.82758331298828,
        -6.627212047576904
      ],
      "type": "VEC3"
    },
    {
      "bufferView": 2,
      "byteOffset": 16514064,
      "componentType": 5126,
      "count": 65532,
      "max": [
        0.9999964833259583,
        0.9999740123748779,
        0.9999650120735168
      ],
      "min": [
        -0.9999480247497559,
        -0.9999993443489075,
        -0.9999992251396179
      ],
      "type": "VEC3"
    },
    {
      "bufferView": 1,
      "byteOffset": 5242560,
      "componentType": 5126,
      "count": 65532,
      "max": [
        0.9999369978904724,
        0.9995110034942627
      ],
      "min": [
        0.0006910000229254365,
        2.9000000722589903e-05
      ],
      "type": "VEC2"
    },
    {
      "bufferView": 0,
      "byteOffset": 13588200,
      "componentType": 5125,
      "count": 322437,
      "type": "SCALAR"
    },
    {
      "bufferView": 2,
      "byteOffset": 17300448,
      "componentType": 5126,
      "count": 65532,
      "max": [
        -0.6680300235748291,
        20.032085418701172,
        1.3042670488357544
      ],
      "min": [
        -6.439770221710205,
        17.784297943115234,
        -2.2417240142822266
      ],
      "type": "VEC3"
    },
    {
      "bufferView": 2,
      "byteOffset": 18086832,
      "componentType": 5126,
      "count": 65532,
      "max": [
        0.9999913573265076,
        0.9999547600746155,
        0.9999760985374451
      ],
      "min": [
        -0.9999913573265076,
        -0.9999980926513672,
        -0.9999732375144958
      ],
      "type": "VEC3"
    },
    {
      "bufferView": 1,
      "byteOffset": 5766816,
      "componentType": 5126,
      "count": 65532,
      "max": [
        1.0,
        1.0
      ],
      "min": [
        0.0,
        0.0
      ],
      "type": "VEC2"
    },
    {
      "bufferView": 0,
      "byteOffset": 14877948,
      "componentType": 5125,
      "count": 283923,
      "type": "SCALAR"
    },
    {
      "bufferView": 2,
      "byteOffset": 18873216,
      "componentType": 5126,
      "count": 65532,
      "max": [
        2.3768908977508545,
        20.285198211669922,
        -0.15424799919128418
      ],
      "min": [
        -3.8140900135040283,
        18.663408279418945,
        -6.9946980476379395
      ],
      "type": "VEC3"
    },
    {
      "bufferView": 2,
      "byteOffset": 19659600,
      "componentType": 5126,
      "count": 65532,
      "max": [
        0.9999973773956299,
        0.9999901056289673,
        0.999984622001648
      ],
      "min": [
        -0.9999992251396179,
        -0.9999993443489075,
        -0.9999986290931702
      ],
      "type": "VEC3"
    },
    {
      "bufferView": 1,
      "byteOffset": 6291072,
      "componentType": 5126,
      "count": 65532,
      "max": [
        1.0,
        0.9999589920043945
      ],
      "min": [
        0.0,
        0.0
      ],
      "type": "VEC2"
    },
    {
      "bufferView": 0,
      "byteOffset": 16013640,
      "componentType": 5125,
      "count": 245928,
      "type": "SCALAR"
    },
    {
      "bufferView": 2,
      "byteOffset": 20445984,
      "componentType": 5126,
      "count": 55923,
      "max": [
        5.719579219818115,
        21.048837661743164,
        1.1346230506896973
      ],
      "min": [
        -0.8020089864730835,
        17.01475715637207,
        -7.35394811630249
      ],
      "type": "VEC3"
    },
    {
      "bufferView": 2,
      "byteOffset": 21117060,
      "componentType": 5126,
      "count": 55923,
      "max": [
        0.9999973773956299,
        0.9999600052833557,
        0.9999616146087646
      ],
      "min": [
        -0.9999945163726807,
        -0.9999974966049194,
        -0.9999745488166809
      ],
      "type": "VEC3"
    },
    {
      "bufferView": 1,
      "byteOffset": 6815328,
      "componentType": 5126,
      "count": 55923,
      "max": [
        0.9999669790267944,
        0.9994720220565796
      ],
      "min": [
        0.00047900000936351717,
        2.300000051036477e-05
      ],
      "type": "VEC2"
    },
    {
      "bufferView": 0,
      "byteOffset": 16997352,
      "componentType": 5125,
      "count": 250656,
      "type": "SCALAR"
    }
  ],
  "asset": {
    "extras": {
      "author": "Arqueomodel3D (https://sketchfab.com/juanbrualla)",
      "license": "CC-BY-4.0 (http://creativecommons.org/licenses/by/4.0/)",
      "source": "https://sketchfab.com/3d-models/castillo-de-oropesa-toledo-5730522e21b542eeb05229be5c021fb3",
      "title": "Castillo de Oropesa | TOLEDO"
    },
    "generator": "Sketchfab-14.40.0",
    "version": "2.0"
  },
  "bufferViews": [
    {
      "buffer": 0,
      "byteLength": 17999976,
      "name": "floatBufferViews",
      "target": 34963
    },
    {
      "buffer": 0,
      "byteLength": 7262712,
      "byteOffset": 17999976,
      "byteStride": 8,
      "name": "floatBufferViews",
      "target": 34962
    },
    {
      "buffer": 0,
      "byteLength": 21788136,
      "byteOffset": 25262688,
      "byteStride": 12,
      "name": "floatBufferViews",
      "target": 34962
    }
  ],
  "buffers": [
    {
      "byteLength": 47050824,
      "uri": "scene.bin"
    }
  ],
  "images": [
    {
      "uri": "textures/OROPESA.1001_baseColor.jpeg"
    }
  ],
  "materials": [
    {
      "doubleSided": true,
      "name": "OROPESA.1001",
      "pbrMetallicRoughness": {
        "baseColorTexture": {
          "index": 0
        },
        "metallicFactor": 0.0
      }
    }
  ],
  "meshes": [
    {
      "name": "Object_0",
      "primitives": [
        {
          "attributes": {
            "NORMAL": 1,
            "POSITION": 0,
            "TEXCOORD_0": 2
          },
          "indices": 3,
          "material": 0,
          "mode": 4
        }
      ]
    },
    {
      "name": "Object_1",
      "primitives": [
        {
          "attributes": {
            "NORMAL": 5,
            "POSITION": 4,
            "TEXCOORD_0": 6
          },
          "indices": 7,
          "material": 0,
          "mode": 4
        }
      ]
    },
    {
      "name": "Object_2",
      "primitives": [
        {
          "attributes": {
            "NORMAL": 9,
            "POSITION": 8,
            "TEXCOORD_0": 10
          },
          "indices": 11,
          "material": 0,
          "mode": 4
        }
      ]
    },
    {
      "name": "Object_3",
      "primitives": [
        {
          "attributes": {
            "NORMAL": 13,
            "POSITION": 12,
            "TEXCOORD_0": 14
          },
          "indices": 15,
          "material": 0,
          "mode": 4
        }
      ]
    },
    {
      "name": "Object_4",
      "primitives": [
        {
          "attributes": {
            "NORMAL": 17,
            "POSITION": 16,
            "TEXCOORD_0": 18
          },
          "indices": 19,
          "material": 0,
          "mode": 4
        }
      ]
    },
    {
      "name": "Object_5",
      "primitives": [
        {
          "attributes": {
            "NORMAL": 21,
            "POSITION": 20,
            "TEXCOORD_0": 22
          },
          "indices": 23,
          "material": 0,
          "mode": 4
        }
      ]
    },
    {
      "name": "Object_6",
      "primitives": [
        {
          "attributes": {
            "NORMAL": 25,
            "POSITION": 24,
            "TEXCOORD_0": 26
          },
          "indices": 27,
          "material": 0,
          "mode": 4
        }
      ]
    },
    {
      "name": "Object_7",
      "primitives": [
        {
          "attributes": {
            "NORMAL": 29,
            "POSITION": 28,
            "TEXCOORD_0": 30
          },
          "indices": 31,
          "material": 0,
          "mode": 4
        }
      ]
    },
    {
      "name": "Object_8",
      "primitives": [
        {
          "attributes": {
            "NORMAL": 33,
            "POSITION": 32,
            "TEXCOORD_0": 34
          },
          "indices": 35,
          "material": 0,
          "mode": 4
        }
      ]
    },
    {
      "name": "Object_9",
      "primitives": [
        {
          "attributes": {
            "NORMAL": 37,
            "POSITION": 36,
            "TEXCOORD_0": 38
          },
          "indices": 39,
          "material": 0,
          "mode": 4
        }
      ]
    },
    {
      "name": "Object_10",
      "primitives": [
        {
          "attributes": {
            "NORMAL": 41,
            "POSITION": 40,
            "TEXCOORD_0": 42
          },
          "indices": 43,
          "material": 0,
          "mode": 4
        }
      ]
    },
    {
      "name": "Object_11",
      "primitives": [
        {
          "attributes": {
            "NORMAL": 45,
            "POSITION": 44,
            "TEXCOORD_0": 46
          },
          "indices": 47,
          "material": 0,
          "mode": 4
        }
      ]
    },
    {
      "name": "Object_12",
      "primitives": [
        {
          "attributes": {
            "NORMAL": 49,
            "POSITION": 48,
            "TEXCOORD_0": 50
          },
          "indices": 51,
          "material": 0,
          "mode": 4
        }
      ]
    },
    {
      "name": "Object_13",
      "primitives": [
        {
          "attributes": {
            "NORMAL": 53,
            "POSITION": 52,
            "TEXCOORD_0": 54
          },
          "indices": 55,
          "material": 0,
          "mode": 4
        }
      ]
    }
  ],
  "nodes": [
    {
      "children": [
        1
      ],
      "matrix": [
        0.9677845239639282,
        -0.03125949949026102,
        -0.24983195960521698,
        0.0,
        -0.009962545707821846,
        -0.9962401986122131,
        0.08605933934450127,
        0.0,
        -0.2515828013420105,
        -0.0807979330420492,
        -0.9644572734832764,
        0.0,
        0.0,
        0.0,
        0.0,
        1.0
      ],
      "name": "Sketchfab_model"
    },
    {
      "children": [
        2,
        3,
        4,
        5,
        6,
        7,
        8,
        9,
        10,
        11,
        12,
        13,
        14,
        15
      ],
      "name": "OROPESA.obj.cleaner.materialmerger.gles"
    },
    {
      "mesh": 0,
      "name": "Object_2"
    },
    {
      "mesh": 1,
      "name": "Object_3"
    },
    {
      "mesh": 2,
      "name": "Object_4"
    },
    {
      "mesh": 3,
      "name": "Object_5"
    },
    {
      "mesh": 4,
      "name": "Object_6"
    },
    {
      "mesh": 5,
      "name": "Object_7"
    },
    {
      "mesh": 6,
      "name": "Object_8"
    },
    {
      "mesh": 7,
      "name": "Object_9"
    },
    {
      "mesh": 8,
      "name": "Object_10"
    },
    {
      "mesh": 9,
      "name": "Object_11"
    },
    {
      "mesh": 10,
      "name": "Object_12"
    },
    {
      "mesh": 11,
      "name": "Object_13"
    },
    {
      "mesh": 12,
      "name": "Object_14"
    },
    {
      "mesh": 13,
      "name": "Object_15"
    }
  ],
  "samplers": [
    {
      "magFilter": 9729,
      "minFilter": 9987,
      "wrapS": 10497,
      "wrapT": 10497
    }
  ],
  "scene": 0,
  "scenes": [
    {
      "name": "Sketchfab_Scene",
      "nodes": [
        0
      ]
    }
  ],
  "textures": [
    {
      "sampler": 0,
      "source": 0
    }
  ]
}
