{
  "accessors": [
    {
      "bufferView": 2,
      "componentType": 5126,
      "count": 4336,
      "max": [
        1.0130079984664917,
        1.0130070447921753,
        3.443150043487549
      ],
      "min": [
        -1.0130079984664917,
        -1.0130079984664917,
        -1.0
      ],
      "type": "VEC3"
    },
    {
      "bufferView": 2,
      "byteOffset": 52032,
      "componentType": 5126,
      "count": 4336,
      "max": [
        1.0,
        1.0,
        1.0
      ],
      "min": [
        -1.0,
        -1.0,
        -1.0
      ],
      "type": "VEC3"
    },
    {
      "bufferView": 3,
      "componentType": 5126,
      "count": 4336,
      "max": [
        0.9999094009399414,
        0.9999532103538513,
        0.99998539686203,
        1.0
      ],
      "min": [
        -1.0,
        -0.9999983906745911,
        -0.9996304512023926,
        -1.0
      ],
      "type": "VEC4"
    },
    {
      "bufferView": 1,
      "componentType": 5126,
      "count": 4336,
      "max": [
        1.0,
        0.9980089068412781
      ],
      "min": [
        0.0,
        0.0
      ],
      "type": "VEC2"
    },
    {
      "bufferView": 0,
      "componentType": 5125,
      "count": 15282,
      "type": "SCALAR"
    },
    {
      "bufferView": 2,
      "byteOffset": 104064,
      "componentType": 5126,
      "count": 295,
      "max": [
        1.526257038116455,
        1.526257038116455,
        1.0
      ],
      "min": [
        -1.526257038116455,
        -1.5262559652328491,
        -4.109364032745361
      ],
      "type": "VEC3"
    },
    {
      "bufferView": 2,
      "byteOffset": 107604,
      "componentType": 5126,
      "count": 295,
      "max": [
        0.9989516735076904,
        0.9989516735076904,
        0.7527971863746643
      ],
      "min": [
        -0.9989516735076904,
        -0.9989516735076904,
        -0.8959069848060608
      ],
      "type": "VEC3"
    },
    {
      "bufferView": 3,
      "byteOffset": 69376,
      "componentType": 5126,
      "count": 295,
      "max": [
        1.0,
        0.9999995231628418,
        0.6582669615745544,
        1.0
      ],
      "min": [
        -0.999989926815033,
        -1.0,
        -0.6582669019699097,
        -1.0
      ],
      "type": "VEC4"
    },
    {
      "bufferView": 1,
      "byteOffset": 34688,
      "componentType": 5126,
      "count": 295,
      "max": [
        1.0,
        1.0
      ],
      "min": [
        0.0,
        0.009999990463256836
      ],
      "type": "VEC2"
    },
    {
      "bufferView": 0,
      "byteOffset": 61128,
      "componentType": 5125,
      "count": 1332,
      "type": "SCALAR"
    }
  ],
  "asset": {
    "extras": {
      "author": "Elbolillo (https://sketchfab.com/Elbolilloduro)",
      "license": "CC-BY-4.0 (http://creativecommons.org/licenses/by/4.0/)",
      "source": "https://sketchfab.com/3d-models/lampara-de-aceite-324aade21fd84ae6b994418555fbaa18",
      "title": "Lampara de aceite"
    },
    "generator": "Sketchfab-12.66.0",
    "version": "2.0"
  },
  "bufferViews": [
    {
      "buffer": 0,
      "byteLength": 66456,
      "name": "floatBufferViews",
      "target": 34963
    },
    {
      "buffer": 0,
      "byteLength": 37048,
      "byteOffset": 66456,
      "byteStride": 8,
      "name": "floatBufferViews",
      "target": 34962
    },
    {
      "buffer": 0,
      "byteLength": 111144,
      "byteOffset": 103504,
      "byteStride": 12,
      "name": "floatBufferViews",
      "target": 34962
    },
    {
      "buffer": 0,
      "byteLength": 74096,
      "byteOffset": 214648,
      "byteStride": 16,
      "name": "floatBufferViews",
      "target": 34962
    }
  ],
  "buffers": [
    {
      "byteLength": 288744,
      "uri": "scene.bin"
    }
  ],
  "extensionsUsed": [
    "KHR_materials_transmission"
  ],
  "images": [
    {
      "uri": "textures/Material_baseColor.png"
    },
    {
      "uri": "textures/Material_metallicRoughness.png"
    },
    {
      "uri": "textures/Material_normal.png"
    },
    {
      "uri": "textures/Material.001_baseColor.png"
    },
    {
      "uri": "textures/Material.001_metallicRoughness.png"
    },
    {
      "uri": "textures/Material.001_normal.png"
    }
  ],
  "materials": [
    {
      "doubleSided": true,
      "name": "Material",
      "normalTexture": {
        "index": 2
      },
      "pbrMetallicRoughness": {
        "baseColorTexture": {
          "index": 0
        },
        "metallicRoughnessTexture": {
          "index": 1
        }
      }
    },
    {
      "alphaMode": "BLEND",
      "doubleSided": true,
      "extensions": {
        "KHR_materials_transmission": {
          "transmissionFactor": 0.18354674741136623
        }
      },
      "name": "Material.001",
      "normalTexture": {
        "index": 5
      },
      "pbrMetallicRoughness": {
        "baseColorFactor": [
          1.0,
          1.0,
          1.0,
          0.8164532525886338
        ],
        "baseColorTexture": {
          "index": 3
        },
        "metallicRoughnessTexture": {
          "index": 4
        }
      }
    }
  ],
  "meshes": [
    {
      "name": "Material-material",
      "primitives": [
        {
          "attributes": {
            "NORMAL": 1,
            "POSITION": 0,
            "TANGENT": 2,
            "TEXCOORD_0": 3
          },
          "indices": 4,
          "material": 0,
          "mode": 4
        }
      ]
    },
    {
      "name": "Material_001-material",
      "primitives": [
        {
          "attributes": {
            "NORMAL": 6,
            "POSITION": 5,
            "TANGENT": 7,
            "TEXCOORD_0": 8
          },
          "indices": 9,
          "material": 1,
          "mode": 4
        }
      ]
    }
  ],
  "nodes": [
    {
      "children": [
        1
      ],
      "matrix": [
        1.0,
        0.0,
        0.0,
        0.0,
        0.0,
        2.220446049250313e-16,
        -1.0,
        0.0,
        0.0,
        1.0,
        2.220446049250313e-16,
        0.0,
        0.0,
        0.0,
        0.0,
        1.0
      ],
      "name": "Sketchfab_model"
    },
    {
      "children": [
        2
      ],
      "name": "Collada visual scene group"
    },
    {
      "children": [
        3,
        4
      ],
      "matrix": [
        1.0,
        0.0,
        0.0,
        0.0,
        0.0,
        1.0,
        0.0,
        0.0,
        0.0,
        0.0,
        1.0,
        0.0,
        0.0,
        -3.57026,
        0.0,
        1.0
      ],
      "name": "Lampara"
    },
    {
      "mesh": 0,
      "name": "Material-material"
    },
    {
      "children": [
        5
      ],
      "matrix": [
        0.3140321,
        0.0,
        0.0,
        0.0,
        0.0,
        0.3140321,
        0.0,
        0.0,
        0.0,
        0.0,
        0.3140321,
        0.0,
        0.0,
        -0.000211954,
        1.092445,
        1.0
      ],
      "name": "C"
    },
    {
      "mesh": 1,
      "name": "Material_001-material"
    }
  ],
  "samplers": [
    {
      "magFilter": 9729,
      "minFilter": 9987,
      "wrapS": 10497,
      "wrapT": 10497
    }
  ],
  "scene": 0,
  "scenes": [
    {
      "name": "Sketchfab_Scene",
      "nodes": [
        0
      ]
    }
  ],
  "textures": [
    {
      "sampler": 0,
      "source": 0
    },
    {
      "sampler": 0,
      "source": 1
    },
    {
      "sampler": 0,
      "source": 2
    },
    {
      "sampler": 0,
      "source": 3
    },
    {
      "sampler": 0,
      "source": 4
    },
    {
      "sampler": 0,
      "source": 5
    }
  ]
}
