{
  "accessors": [
    {
      "bufferView": 2,
      "componentType": 5126,
      "count": 1088,
      "max": [
        0.39226946234703064,
        1.4564021825790405,
        0.6830825805664063
      ],
      "min": [
        -0.1332034468650818,
        0.9129252433776855,
        -0.06774234026670456
      ],
      "type": "VEC3"
    },
    {
      "bufferView": 2,
      "byteOffset": 13056,
      "componentType": 5126,
      "count": 1088,
      "max": [
        0.9969940781593323,
        0.9995951056480408,
        0.9983603954315186
      ],
      "min": [
        -0.9990019202232361,
        -0.9989772439002991,
        -0.9926687479019165
      ],
      "type": "VEC3"
    },
    {
      "bufferView": 3,
      "componentType": 5126,
      "count": 1088,
      "max": [
        0.9980924129486084,
        0.9999916553497314,
        0.9997119903564453,
        1.0
      ],
      "min": [
        -0.9982120394706726,
        -0.9997628927230835,
        -0.9990610480308533,
        -1.0
      ],
      "type": "VEC4"
    },
    {
      "bufferView": 1,
      "componentType": 5126,
      "count": 1088,
      "max": [
        0.9935240149497986,
        0.9653720259666443
      ],
      "min": [
        0.0005000000237487257,
        0.0005000000237487257
      ],
      "type": "VEC2"
    },
    {
      "bufferView": 1,
      "byteOffset": 8704,
      "componentType": 5126,
      "count": 1088,
      "max": [
        0.9935240149497986,
        0.9653720259666443
      ],
      "min": [
        0.0005000000237487257,
        0.0005000000237487257
      ],
      "type": "VEC2"
    },
    {
      "bufferView": 0,
      "componentType": 5125,
      "count": 3888,
      "type": "SCALAR"
    },
    {
      "bufferView": 2,
      "byteOffset": 26112,
      "componentType": 5126,
      "count": 516,
      "max": [
        0.22057408094406128,
        1.6082779169082642,
        0.41391152143478394
      ],
      "min": [
        0.03532899543642998,
        1.2842590808868408,
        0.11463365703821182
      ],
      "type": "VEC3"
    },
    {
      "bufferView": 2,
      "byteOffset": 32304,
      "componentType": 5126,
      "count": 516,
      "max": [
        0.9985116124153137,
        0.9977521896362305,
        0.9943464994430542
      ],
      "min": [
        -0.9993661642074585,
        -0.9859766364097595,
        -0.9965305924415588
      ],
      "type": "VEC3"
    },
    {
      "bufferView": 3,
      "byteOffset": 17408,
      "componentType": 5126,
      "count": 516,
      "max": [
        0.9806147217750549,
        0.8700697422027588,
        0.9945201873779297,
        1.0
      ],
      "min": [
        -0.9933554530143738,
        -0.9988064169883728,
        -0.9993705749511719,
        -1.0
      ],
      "type": "VEC4"
    },
    {
      "bufferView": 1,
      "byteOffset": 17408,
      "componentType": 5126,
      "count": 516,
      "max": [
        0.995464026927948,
        0.9905539751052856
      ],
      "min": [
        0.0018235699972137809,
        0.0025524699594825506
      ],
      "type": "VEC2"
    },
    {
      "bufferView": 0,
      "byteOffset": 15552,
      "componentType": 5125,
      "count": 2796,
      "type": "SCALAR"
    },
    {
      "bufferView": 2,
      "byteOffset": 38496,
      "componentType": 5126,
      "count": 628,
      "max": [
        0.2913106083869934,
        1.3863765001296997,
        0.8441731929779053
      ],
      "min": [
        -0.018714353442192078,
        1.1875556707382202,
        0.5277776122093201
      ],
      "type": "VEC3"
    },
    {
      "bufferView": 2,
      "byteOffset": 46032,
      "componentType": 5126,
      "count": 628,
      "max": [
        0.9876944422721863,
        0.987775981426239,
        0.9958320260047913
      ],
      "min": [
        -0.9962477087974548,
        -0.9946756362915039,
        -0.9948853254318237
      ],
      "type": "VEC3"
    },
    {
      "bufferView": 3,
      "byteOffset": 25664,
      "componentType": 5126,
      "count": 628,
      "max": [
        0.9999260306358337,
        0.9986319541931152,
        0.9905288815498352,
        1.0
      ],
      "min": [
        -0.9990576505661011,
        -0.9941632151603699,
        -0.9991013407707214,
        -1.0
      ],
      "type": "VEC4"
    },
    {
      "bufferView": 1,
      "byteOffset": 21536,
      "componentType": 5126,
      "count": 628,
      "max": [
        0.9157509803771973,
        0.9956269860267639
      ],
      "min": [
        0.12984499335289001,
        0.0029070000164210796
      ],
      "type": "VEC2"
    },
    {
      "bufferView": 0,
      "byteOffset": 26736,
      "componentType": 5125,
      "count": 2688,
      "type": "SCALAR"
    },
    {
      "bufferView": 2,
      "byteOffset": 53568,
      "componentType": 5126,
      "count": 415,
      "max": [
        0.3810167908668518,
        0.9476258754730225,
        0.49751728773117065
      ],
      "min": [
        -0.15380212664604187,
        0.14114205539226532,
        -0.21782398223876953
      ],
      "type": "VEC3"
    },
    {
      "bufferView": 2,
      "byteOffset": 58548,
      "componentType": 5126,
      "count": 415,
      "max": [
        0.9993429780006409,
        0.999642550945282,
        0.9989740252494812
      ],
      "min": [
        -0.9942131042480469,
        -0.9950762391090393,
        -0.9930186867713928
      ],
      "type": "VEC3"
    },
    {
      "bufferView": 3,
      "byteOffset": 35712,
      "componentType": 5126,
      "count": 415,
      "max": [
        0.9970025420188904,
        0.7358755469322205,
        0.9944632053375244,
        1.0
      ],
      "min": [
        -0.9999110698699951,
        -0.8537824749946594,
        -0.9970569014549255,
        -1.0
      ],
      "type": "VEC4"
    },
    {
      "bufferView": 1,
      "byteOffset": 26560,
      "componentType": 5126,
      "count": 415,
      "max": [
        0.9907919764518738,
        0.9699919819831848
      ],
      "min": [
        0.007050829939544201,
        0.05310880020260811
      ],
      "type": "VEC2"
    },
    {
      "bufferView": 0,
      "byteOffset": 37488,
      "componentType": 5125,
      "count": 1728,
      "type": "SCALAR"
    },
    {
      "bufferView": 2,
      "byteOffset": 63528,
      "componentType": 5126,
      "count": 228,
      "max": [
        0.4662158191204071,
        0.21204602718353271,
        0.6823882460594177
      ],
      "min": [
        -0.18180418014526367,
        -0.00030176484142430127,
        -0.27905595302581787
      ],
      "type": "VEC3"
    },
    {
      "bufferView": 2,
      "byteOffset": 66264,
      "componentType": 5126,
      "count": 228,
      "max": [
        0.9965003728866577,
        0.9819931983947754,
        0.9418756365776062
      ],
      "min": [
        -0.9960043430328369,
        -0.9643030166625977,
        -0.9979179501533508
      ],
      "type": "VEC3"
    },
    {
      "bufferView": 3,
      "byteOffset": 42352,
      "componentType": 5126,
      "count": 228,
      "max": [
        0.9991157650947571,
        0.9952946901321411,
        0.998771607875824,
        1.0
      ],
      "min": [
        -0.999675989151001,
        -0.9270902872085571,
        -0.9999415278434753,
        -1.0
      ],
      "type": "VEC4"
    },
    {
      "bufferView": 1,
      "byteOffset": 29880,
      "componentType": 5126,
      "count": 228,
      "max": [
        0.9906610250473022,
        1.0003999471664429
      ],
      "min": [
        0.006113000214099884,
        0.0064130001701414585
      ],
      "type": "VEC2"
    },
    {
      "bufferView": 0,
      "byteOffset": 44400,
      "componentType": 5125,
      "count": 744,
      "type": "SCALAR"
    }
  ],
  "asset": {
    "extras": {
      "author": "πRat (https://sketchfab.com/GrimZu)",
      "license": "CC-BY-4.0 (http://creativecommons.org/licenses/by/4.0/)",
      "source": "https://sketchfab.com/3d-models/zombie-0541416bd635486f95cb3d44f8f676c1",
      "title": "Zombie"
    },
    "generator": "Sketchfab-12.64.0",
    "version": "2.0"
  },
  "bufferViews": [
    {
      "buffer": 0,
      "byteLength": 47376,
      "name": "floatBufferViews",
      "target": 34963
    },
    {
      "buffer": 0,
      "byteLength": 31704,
      "byteOffset": 47376,
      "byteStride": 8,
      "name": "floatBufferViews",
      "target": 34962
    },
    {
      "buffer": 0,
      "byteLength": 69000,
      "byteOffset": 79080,
      "byteStride": 12,
      "name": "floatBufferViews",
      "target": 34962
    },
    {
      "buffer": 0,
      "byteLength": 46000,
      "byteOffset": 148080,
      "byteStride": 16,
      "name": "floatBufferViews",
      "target": 34962
    }
  ],
  "buffers": [
    {
      "byteLength": 194080,
      "uri": "scene.bin"
    }
  ],
  "images": [
    {
      "uri": "textures/tors_baseColor.png"
    },
    {
      "uri": "textures/tors_normal.png"
    },
    {
      "uri": "textures/head_baseColor.png"
    },
    {
      "uri": "textures/head_normal.png"
    },
    {
      "uri": "textures/hands_baseColor.png"
    },
    {
      "uri": "textures/pants_baseColor.png"
    },
    {
      "uri": "textures/pants_normal.png"
    },
    {
      "uri": "textures/boots_baseColor.png"
    },
    {
      "uri": "textures/boots_normal.png"
    }
  ],
  "materials": [
    {
      "doubleSided": true,
      "name": "tors",
      "normalTexture": {
        "index": 1
      },
      "pbrMetallicRoughness": {
        "baseColorTexture": {
          "index": 0
        },
        "metallicFactor": 0.0,
        "roughnessFactor": 0.6
      }
    },
    {
      "doubleSided": true,
      "name": "head",
      "normalTexture": {
        "index": 3
      },
      "pbrMetallicRoughness": {
        "baseColorFactor": [
          0.8,
          0.8,
          0.8,
          1.0
        ],
        "baseColorTexture": {
          "index": 2
        },
        "metallicFactor": 0.0,
        "roughnessFactor": 0.6
      }
    },
    {
      "doubleSided": true,
      "name": "hands",
      "normalTexture": {
        "index": 1
      },
      "pbrMetallicRoughness": {
        "baseColorTexture": {
          "index": 4
        },
        "metallicFactor": 0.0,
        "roughnessFactor": 0.6
      }
    },
    {
      "doubleSided": true,
      "name": "pants",
      "normalTexture": {
        "index": 6
      },
      "pbrMetallicRoughness": {
        "baseColorTexture": {
          "index": 5
        },
        "metallicFactor": 0.0,
        "roughnessFactor": 0.6
      }
    },
    {
      "doubleSided": true,
      "name": "boots",
      "normalTexture": {
        "index": 8
      },
      "pbrMetallicRoughness": {
        "baseColorTexture": {
          "index": 7
        },
        "metallicFactor": 0.0,
        "roughnessFactor": 0.6
      }
    }
  ],
  "meshes": [
    {
      "name": "CTN_Torso_Shirt@Mesh001_CTN_Torso_Shirt@Mesh002_tors_0",
      "primitives": [
        {
          "attributes": {
            "NORMAL": 1,
            "POSITION": 0,
            "TANGENT": 2,
            "TEXCOORD_0": 3,
            "TEXCOORD_1": 4
          },
          "indices": 5,
          "material": 0,
          "mode": 4
        }
      ]
    },
    {
      "name": "MN_Head_MN_Head1_head__0",
      "primitives": [
        {
          "attributes": {
            "NORMAL": 7,
            "POSITION": 6,
            "TANGENT": 8,
            "TEXCOORD_0": 9
          },
          "indices": 10,
          "material": 1,
          "mode": 4
        }
      ]
    },
    {
      "name": "MN_Hands_MN_Hands1_hands_0",
      "primitives": [
        {
          "attributes": {
            "NORMAL": 12,
            "POSITION": 11,
            "TANGENT": 13,
            "TEXCOORD_0": 14
          },
          "indices": 15,
          "material": 2,
          "mode": 4
        }
      ]
    },
    {
      "name": "MN_pants_MN_pants1_pants_0",
      "primitives": [
        {
          "attributes": {
            "NORMAL": 17,
            "POSITION": 16,
            "TANGENT": 18,
            "TEXCOORD_0": 19
          },
          "indices": 20,
          "material": 3,
          "mode": 4
        }
      ]
    },
    {
      "name": "MN_Boots_MN_Boots1_boots_0",
      "primitives": [
        {
          "attributes": {
            "NORMAL": 22,
            "POSITION": 21,
            "TANGENT": 23,
            "TEXCOORD_0": 24
          },
          "indices": 25,
          "material": 4,
          "mode": 4
        }
      ]
    }
  ],
  "nodes": [
    {
      "children": [
        1
      ],
      "matrix": [
        1.0,
        0.0,
        0.0,
        0.0,
        0.0,
        2.220446049250313e-16,
        -1.0,
        0.0,
        0.0,
        1.0,
        2.220446049250313e-16,
        0.0,
        0.0,
        0.0,
        0.0,
        1.0
      ],
      "name": "Sketchfab_model"
    },
    {
      "children": [
        2
      ],
      "matrix": [
        1.0,
        0.0,
        0.0,
        0.0,
        0.0,
        0.0,
        1.0,
        0.0,
        0.0,
        -1.0,
        0.0,
        0.0,
        0.0,
        0.0,
        0.0,
        1.0
      ],
      "name": "30226538196e4463bea35fa1528e25d7.fbx"
    },
    {
      "children": [
        3,
        5,
        7,
        9,
        11
      ],
      "name": "RootNode"
    },
    {
      "children": [
        4
      ],
      "name": "CTN_Torso_Shirt@Mesh001_CTN_Torso_Shirt@Mesh002"
    },
    {
      "mesh": 0,
      "name": "CTN_Torso_Shirt@Mesh001_CTN_Torso_Shirt@Mesh002_tors_0"
    },
    {
      "children": [
        6
      ],
      "name": "MN_Head_MN_Head1"
    },
    {
      "mesh": 1,
      "name": "MN_Head_MN_Head1_head__0"
    },
    {
      "children": [
        8
      ],
      "name": "MN_Hands_MN_Hands1"
    },
    {
      "mesh": 2,
      "name": "MN_Hands_MN_Hands1_hands_0"
    },
    {
      "children": [
        10
      ],
      "name": "MN_pants_MN_pants1"
    },
    {
      "mesh": 3,
      "name": "MN_pants_MN_pants1_pants_0"
    },
    {
      "children": [
        12
      ],
      "name": "MN_Boots_MN_Boots1"
    },
    {
      "mesh": 4,
      "name": "MN_Boots_MN_Boots1_boots_0"
    }
  ],
  "samplers": [
    {
      "magFilter": 9729,
      "minFilter": 9987,
      "wrapS": 10497,
      "wrapT": 10497
    }
  ],
  "scene": 0,
  "scenes": [
    {
      "name": "Sketchfab_Scene",
      "nodes": [
        0
      ]
    }
  ],
  "textures": [
    {
      "sampler": 0,
      "source": 0
    },
    {
      "sampler": 0,
      "source": 1
    },
    {
      "sampler": 0,
      "source": 2
    },
    {
      "sampler": 0,
      "source": 3
    },
    {
      "sampler": 0,
      "source": 4
    },
    {
      "sampler": 0,
      "source": 5
    },
    {
      "sampler": 0,
      "source": 6
    },
    {
      "sampler": 0,
      "source": 7
    },
    {
      "sampler": 0,
      "source": 8
    }
  ]
}
